<mxfile host="app.diagrams.net" modified="2021-07-23T16:10:09.129Z" agent="5.0 (Windows)" etag="5-jAaLy33S_SIz7yMW9K" version="14.9.2" type="github">
  <diagram name="Page-1" id="edf60f1a-56cd-e834-aa8a-f176f3a09ee4">
    <mxGraphModel dx="2062" dy="1112" grid="1" gridSize="10" guides="1" tooltips="1" connect="1" arrows="1" fold="1" page="1" pageScale="1" pageWidth="1100" pageHeight="850" background="none" math="0" shadow="0">
      <root>
        <mxCell id="0" />
        <mxCell id="1" parent="0" />
        <mxCell id="L5srDaottbRkrjwgrSW8-10" value="" style="edgeStyle=orthogonalEdgeStyle;rounded=0;orthogonalLoop=1;jettySize=auto;html=1;" edge="1" parent="1" source="5dePL24mg1rfkJHN343Z-2" target="L5srDaottbRkrjwgrSW8-9">
          <mxGeometry relative="1" as="geometry" />
        </mxCell>
        <mxCell id="5dePL24mg1rfkJHN343Z-2" value="Open App" style="ellipse;whiteSpace=wrap;html=1;" parent="1" vertex="1">
          <mxGeometry x="1150" y="10" width="120" height="80" as="geometry" />
        </mxCell>
        <mxCell id="5dePL24mg1rfkJHN343Z-6" value="" style="edgeStyle=orthogonalEdgeStyle;rounded=0;orthogonalLoop=1;jettySize=auto;html=1;" parent="1" source="5dePL24mg1rfkJHN343Z-3" target="5dePL24mg1rfkJHN343Z-5" edge="1">
          <mxGeometry relative="1" as="geometry" />
        </mxCell>
        <mxCell id="5dePL24mg1rfkJHN343Z-3" value="Login Page (Authenticated user)" style="whiteSpace=wrap;html=1;" parent="1" vertex="1">
          <mxGeometry x="80" y="220" width="120" height="60" as="geometry" />
        </mxCell>
        <mxCell id="5dePL24mg1rfkJHN343Z-5" value="MMD LogBook screen" style="whiteSpace=wrap;html=1;" parent="1" vertex="1">
          <mxGeometry x="80" y="300" width="120" height="60" as="geometry" />
        </mxCell>
        <mxCell id="5dePL24mg1rfkJHN343Z-11" value="No" style="edgeStyle=orthogonalEdgeStyle;rounded=0;orthogonalLoop=1;jettySize=auto;html=1;" parent="1" source="5dePL24mg1rfkJHN343Z-8" target="5dePL24mg1rfkJHN343Z-10" edge="1">
          <mxGeometry x="-0.2" y="-10" relative="1" as="geometry">
            <Array as="points">
              <mxPoint x="1060" y="590" />
              <mxPoint x="1060" y="590" />
            </Array>
            <mxPoint as="offset" />
          </mxGeometry>
        </mxCell>
        <mxCell id="L5srDaottbRkrjwgrSW8-2" value="" style="edgeStyle=orthogonalEdgeStyle;rounded=0;orthogonalLoop=1;jettySize=auto;html=1;" edge="1" parent="1" source="5dePL24mg1rfkJHN343Z-8" target="L5srDaottbRkrjwgrSW8-1">
          <mxGeometry relative="1" as="geometry" />
        </mxCell>
        <mxCell id="5dePL24mg1rfkJHN343Z-8" value="Is User Authenticated?" style="rhombus;whiteSpace=wrap;html=1;" parent="1" vertex="1">
          <mxGeometry x="1130" y="510" width="160" height="160" as="geometry" />
        </mxCell>
        <mxCell id="5dePL24mg1rfkJHN343Z-13" value="" style="edgeStyle=orthogonalEdgeStyle;rounded=0;orthogonalLoop=1;jettySize=auto;html=1;" parent="1" source="5dePL24mg1rfkJHN343Z-10" target="5dePL24mg1rfkJHN343Z-12" edge="1">
          <mxGeometry relative="1" as="geometry" />
        </mxCell>
        <mxCell id="5dePL24mg1rfkJHN343Z-10" value="Sign In Methods" style="whiteSpace=wrap;html=1;" parent="1" vertex="1">
          <mxGeometry x="910" y="560" width="120" height="60" as="geometry" />
        </mxCell>
        <mxCell id="5dePL24mg1rfkJHN343Z-15" value="Input Not Done" style="edgeStyle=orthogonalEdgeStyle;rounded=0;orthogonalLoop=1;jettySize=auto;html=1;" parent="1" source="5dePL24mg1rfkJHN343Z-12" target="5dePL24mg1rfkJHN343Z-14" edge="1">
          <mxGeometry relative="1" as="geometry" />
        </mxCell>
        <mxCell id="5dePL24mg1rfkJHN343Z-12" value="UID / PassWord" style="rhombus;whiteSpace=wrap;html=1;" parent="1" vertex="1">
          <mxGeometry x="915" y="690" width="110" height="100" as="geometry" />
        </mxCell>
        <mxCell id="5dePL24mg1rfkJHN343Z-17" value="Input Not Done" style="edgeStyle=orthogonalEdgeStyle;rounded=0;orthogonalLoop=1;jettySize=auto;html=1;" parent="1" source="5dePL24mg1rfkJHN343Z-14" target="5dePL24mg1rfkJHN343Z-16" edge="1">
          <mxGeometry relative="1" as="geometry" />
        </mxCell>
        <mxCell id="5dePL24mg1rfkJHN343Z-28" style="edgeStyle=orthogonalEdgeStyle;rounded=0;orthogonalLoop=1;jettySize=auto;html=1;entryX=0;entryY=0.5;entryDx=0;entryDy=0;" parent="1" source="5dePL24mg1rfkJHN343Z-14" target="5dePL24mg1rfkJHN343Z-20" edge="1">
          <mxGeometry relative="1" as="geometry">
            <Array as="points">
              <mxPoint x="790" y="890" />
              <mxPoint x="790" y="450" />
            </Array>
          </mxGeometry>
        </mxCell>
        <mxCell id="5dePL24mg1rfkJHN343Z-14" value="Pin" style="rhombus;whiteSpace=wrap;html=1;" parent="1" vertex="1">
          <mxGeometry x="930" y="850" width="80" height="80" as="geometry" />
        </mxCell>
        <mxCell id="5dePL24mg1rfkJHN343Z-19" value="Input Not Done" style="edgeStyle=orthogonalEdgeStyle;rounded=0;orthogonalLoop=1;jettySize=auto;html=1;" parent="1" source="5dePL24mg1rfkJHN343Z-16" target="5dePL24mg1rfkJHN343Z-18" edge="1">
          <mxGeometry relative="1" as="geometry" />
        </mxCell>
        <mxCell id="5dePL24mg1rfkJHN343Z-30" style="edgeStyle=orthogonalEdgeStyle;rounded=0;orthogonalLoop=1;jettySize=auto;html=1;exitX=0;exitY=0.5;exitDx=0;exitDy=0;entryX=0;entryY=0.5;entryDx=0;entryDy=0;" parent="1" source="5dePL24mg1rfkJHN343Z-16" target="5dePL24mg1rfkJHN343Z-20" edge="1">
          <mxGeometry relative="1" as="geometry">
            <Array as="points">
              <mxPoint x="790" y="1050" />
              <mxPoint x="790" y="450" />
            </Array>
          </mxGeometry>
        </mxCell>
        <mxCell id="5dePL24mg1rfkJHN343Z-16" value="GAuth" style="rhombus;whiteSpace=wrap;html=1;" parent="1" vertex="1">
          <mxGeometry x="930" y="1010" width="80" height="80" as="geometry" />
        </mxCell>
        <mxCell id="5dePL24mg1rfkJHN343Z-24" value="Input Not Done" style="edgeStyle=orthogonalEdgeStyle;rounded=0;orthogonalLoop=1;jettySize=auto;html=1;" parent="1" source="5dePL24mg1rfkJHN343Z-18" target="5dePL24mg1rfkJHN343Z-23" edge="1">
          <mxGeometry relative="1" as="geometry" />
        </mxCell>
        <mxCell id="5dePL24mg1rfkJHN343Z-31" style="edgeStyle=orthogonalEdgeStyle;rounded=0;orthogonalLoop=1;jettySize=auto;html=1;entryX=0;entryY=0.5;entryDx=0;entryDy=0;" parent="1" source="5dePL24mg1rfkJHN343Z-18" edge="1" target="5dePL24mg1rfkJHN343Z-20">
          <mxGeometry relative="1" as="geometry">
            <mxPoint x="1150" y="450" as="targetPoint" />
            <Array as="points">
              <mxPoint x="790" y="1210" />
              <mxPoint x="790" y="450" />
            </Array>
          </mxGeometry>
        </mxCell>
        <mxCell id="5dePL24mg1rfkJHN343Z-18" value="FbAuth" style="rhombus;whiteSpace=wrap;html=1;" parent="1" vertex="1">
          <mxGeometry x="930" y="1170" width="80" height="80" as="geometry" />
        </mxCell>
        <mxCell id="5dePL24mg1rfkJHN343Z-22" value="" style="edgeStyle=orthogonalEdgeStyle;rounded=0;orthogonalLoop=1;jettySize=auto;html=1;" parent="1" source="5dePL24mg1rfkJHN343Z-20" target="5dePL24mg1rfkJHN343Z-8" edge="1">
          <mxGeometry relative="1" as="geometry" />
        </mxCell>
        <mxCell id="5dePL24mg1rfkJHN343Z-20" value="Check for Auth" style="shape=parallelogram;perimeter=parallelogramPerimeter;whiteSpace=wrap;html=1;fixedSize=1;" parent="1" vertex="1">
          <mxGeometry x="1150" y="420" width="120" height="60" as="geometry" />
        </mxCell>
        <mxCell id="5dePL24mg1rfkJHN343Z-26" value="Input Not Done" style="edgeStyle=orthogonalEdgeStyle;rounded=0;orthogonalLoop=1;jettySize=auto;html=1;" parent="1" source="5dePL24mg1rfkJHN343Z-23" target="5dePL24mg1rfkJHN343Z-25" edge="1">
          <mxGeometry relative="1" as="geometry" />
        </mxCell>
        <mxCell id="5dePL24mg1rfkJHN343Z-33" style="edgeStyle=orthogonalEdgeStyle;rounded=0;orthogonalLoop=1;jettySize=auto;html=1;entryX=0;entryY=0.5;entryDx=0;entryDy=0;" parent="1" source="5dePL24mg1rfkJHN343Z-23" target="5dePL24mg1rfkJHN343Z-20" edge="1">
          <mxGeometry relative="1" as="geometry">
            <mxPoint x="1110" y="450" as="targetPoint" />
            <Array as="points">
              <mxPoint x="790" y="1370" />
              <mxPoint x="790" y="450" />
            </Array>
          </mxGeometry>
        </mxCell>
        <mxCell id="5dePL24mg1rfkJHN343Z-23" value="SMS" style="rhombus;whiteSpace=wrap;html=1;" parent="1" vertex="1">
          <mxGeometry x="930" y="1330" width="80" height="80" as="geometry" />
        </mxCell>
        <mxCell id="5dePL24mg1rfkJHN343Z-34" style="edgeStyle=orthogonalEdgeStyle;rounded=0;orthogonalLoop=1;jettySize=auto;html=1;exitX=0;exitY=0.5;exitDx=0;exitDy=0;entryX=0;entryY=0.5;entryDx=0;entryDy=0;" parent="1" source="5dePL24mg1rfkJHN343Z-25" target="5dePL24mg1rfkJHN343Z-20" edge="1">
          <mxGeometry relative="1" as="geometry">
            <Array as="points">
              <mxPoint x="790" y="1530" />
              <mxPoint x="790" y="450" />
            </Array>
          </mxGeometry>
        </mxCell>
        <mxCell id="5dePL24mg1rfkJHN343Z-37" value="" style="edgeStyle=orthogonalEdgeStyle;rounded=0;orthogonalLoop=1;jettySize=auto;html=1;" parent="1" source="5dePL24mg1rfkJHN343Z-25" target="5dePL24mg1rfkJHN343Z-36" edge="1">
          <mxGeometry relative="1" as="geometry" />
        </mxCell>
        <mxCell id="5dePL24mg1rfkJHN343Z-25" value="Call" style="rhombus;whiteSpace=wrap;html=1;" parent="1" vertex="1">
          <mxGeometry x="930" y="1490" width="80" height="80" as="geometry" />
        </mxCell>
        <mxCell id="5dePL24mg1rfkJHN343Z-39" value="" style="edgeStyle=orthogonalEdgeStyle;rounded=0;orthogonalLoop=1;jettySize=auto;html=1;" parent="1" source="5dePL24mg1rfkJHN343Z-36" target="5dePL24mg1rfkJHN343Z-38" edge="1">
          <mxGeometry relative="1" as="geometry" />
        </mxCell>
        <mxCell id="5dePL24mg1rfkJHN343Z-36" value="Show Sign Up page" style="whiteSpace=wrap;html=1;" parent="1" vertex="1">
          <mxGeometry x="910" y="1660" width="120" height="60" as="geometry" />
        </mxCell>
        <mxCell id="L5srDaottbRkrjwgrSW8-15" style="edgeStyle=orthogonalEdgeStyle;rounded=0;orthogonalLoop=1;jettySize=auto;html=1;entryX=1;entryY=0.5;entryDx=0;entryDy=0;" edge="1" parent="1" source="5dePL24mg1rfkJHN343Z-38" target="L5srDaottbRkrjwgrSW8-9">
          <mxGeometry relative="1" as="geometry">
            <Array as="points">
              <mxPoint x="1340" y="1830" />
              <mxPoint x="1340" y="270" />
            </Array>
          </mxGeometry>
        </mxCell>
        <mxCell id="L5srDaottbRkrjwgrSW8-17" value="" style="edgeStyle=orthogonalEdgeStyle;rounded=0;orthogonalLoop=1;jettySize=auto;html=1;" edge="1" parent="1" source="5dePL24mg1rfkJHN343Z-38" target="L5srDaottbRkrjwgrSW8-16">
          <mxGeometry relative="1" as="geometry" />
        </mxCell>
        <mxCell id="5dePL24mg1rfkJHN343Z-38" value="Sign Up?" style="rhombus;whiteSpace=wrap;html=1;" parent="1" vertex="1">
          <mxGeometry x="930" y="1790" width="80" height="80" as="geometry" />
        </mxCell>
        <mxCell id="5dePL24mg1rfkJHN343Z-27" value="Input Done / Other Auth methods Suppressed" style="edgeStyle=orthogonalEdgeStyle;rounded=0;orthogonalLoop=1;jettySize=auto;html=1;entryX=0;entryY=0.5;entryDx=0;entryDy=0;" parent="1" source="5dePL24mg1rfkJHN343Z-12" target="5dePL24mg1rfkJHN343Z-20" edge="1">
          <mxGeometry x="-0.0065" relative="1" as="geometry">
            <Array as="points">
              <mxPoint x="790" y="740" />
              <mxPoint x="790" y="450" />
            </Array>
            <mxPoint as="offset" />
          </mxGeometry>
        </mxCell>
        <mxCell id="L5srDaottbRkrjwgrSW8-4" value="" style="edgeStyle=orthogonalEdgeStyle;rounded=0;orthogonalLoop=1;jettySize=auto;html=1;" edge="1" parent="1" source="L5srDaottbRkrjwgrSW8-1" target="L5srDaottbRkrjwgrSW8-3">
          <mxGeometry relative="1" as="geometry" />
        </mxCell>
        <mxCell id="L5srDaottbRkrjwgrSW8-1" value="Display MMD Log Book Page. &lt;br&gt;&lt;div&gt;- Clickable Actions&lt;/div&gt;&lt;div&gt;** List of Deployed Jobs (1)&lt;br&gt;&lt;/div&gt;&lt;div&gt;** New Job Deployment (2)&lt;br&gt;&lt;/div&gt;" style="whiteSpace=wrap;html=1;" vertex="1" parent="1">
          <mxGeometry x="1150" y="800" width="120" height="180" as="geometry" />
        </mxCell>
        <mxCell id="L5srDaottbRkrjwgrSW8-6" value="No" style="edgeStyle=orthogonalEdgeStyle;rounded=0;orthogonalLoop=1;jettySize=auto;html=1;" edge="1" parent="1" source="L5srDaottbRkrjwgrSW8-3" target="L5srDaottbRkrjwgrSW8-5">
          <mxGeometry relative="1" as="geometry" />
        </mxCell>
        <mxCell id="L5srDaottbRkrjwgrSW8-22" value="" style="edgeStyle=orthogonalEdgeStyle;rounded=0;orthogonalLoop=1;jettySize=auto;html=1;labelBorderColor=#000000;fillColor=#f8cecc;strokeColor=#b85450;" edge="1" parent="1" source="L5srDaottbRkrjwgrSW8-3" target="L5srDaottbRkrjwgrSW8-21">
          <mxGeometry relative="1" as="geometry" />
        </mxCell>
        <mxCell id="L5srDaottbRkrjwgrSW8-3" value="Clicked 1" style="rhombus;whiteSpace=wrap;html=1;" vertex="1" parent="1">
          <mxGeometry x="1170" y="1110" width="80" height="80" as="geometry" />
        </mxCell>
        <mxCell id="L5srDaottbRkrjwgrSW8-8" value="No" style="edgeStyle=orthogonalEdgeStyle;rounded=0;orthogonalLoop=1;jettySize=auto;html=1;" edge="1" parent="1" source="L5srDaottbRkrjwgrSW8-5" target="L5srDaottbRkrjwgrSW8-7">
          <mxGeometry relative="1" as="geometry" />
        </mxCell>
        <mxCell id="L5srDaottbRkrjwgrSW8-5" value="Clicked 2" style="rhombus;whiteSpace=wrap;html=1;" vertex="1" parent="1">
          <mxGeometry x="1170" y="1270" width="80" height="80" as="geometry" />
        </mxCell>
        <mxCell id="L5srDaottbRkrjwgrSW8-12" value="Yes" style="edgeStyle=orthogonalEdgeStyle;rounded=0;orthogonalLoop=1;jettySize=auto;html=1;entryX=1;entryY=0.5;entryDx=0;entryDy=0;" edge="1" parent="1" source="L5srDaottbRkrjwgrSW8-7" target="L5srDaottbRkrjwgrSW8-9">
          <mxGeometry x="-0.9559" relative="1" as="geometry">
            <Array as="points">
              <mxPoint x="1340" y="1470" />
              <mxPoint x="1340" y="270" />
            </Array>
            <mxPoint as="offset" />
          </mxGeometry>
        </mxCell>
        <mxCell id="L5srDaottbRkrjwgrSW8-14" value="" style="edgeStyle=orthogonalEdgeStyle;rounded=0;orthogonalLoop=1;jettySize=auto;html=1;" edge="1" parent="1" source="L5srDaottbRkrjwgrSW8-7" target="L5srDaottbRkrjwgrSW8-13">
          <mxGeometry relative="1" as="geometry" />
        </mxCell>
        <mxCell id="L5srDaottbRkrjwgrSW8-7" value="Press Back" style="rhombus;whiteSpace=wrap;html=1;" vertex="1" parent="1">
          <mxGeometry x="1170" y="1430" width="80" height="80" as="geometry" />
        </mxCell>
        <mxCell id="L5srDaottbRkrjwgrSW8-11" style="edgeStyle=orthogonalEdgeStyle;rounded=0;orthogonalLoop=1;jettySize=auto;html=1;exitX=0.5;exitY=1;exitDx=0;exitDy=0;" edge="1" parent="1" source="L5srDaottbRkrjwgrSW8-9" target="5dePL24mg1rfkJHN343Z-20">
          <mxGeometry relative="1" as="geometry" />
        </mxCell>
        <mxCell id="L5srDaottbRkrjwgrSW8-9" value="Login Page" style="whiteSpace=wrap;html=1;" vertex="1" parent="1">
          <mxGeometry x="1150" y="240" width="120" height="60" as="geometry" />
        </mxCell>
        <mxCell id="L5srDaottbRkrjwgrSW8-13" value="Stay on the Page" style="whiteSpace=wrap;html=1;" vertex="1" parent="1">
          <mxGeometry x="1150" y="1600" width="120" height="60" as="geometry" />
        </mxCell>
        <mxCell id="L5srDaottbRkrjwgrSW8-19" value="" style="edgeStyle=orthogonalEdgeStyle;rounded=0;orthogonalLoop=1;jettySize=auto;html=1;" edge="1" parent="1" source="L5srDaottbRkrjwgrSW8-16" target="L5srDaottbRkrjwgrSW8-18">
          <mxGeometry relative="1" as="geometry" />
        </mxCell>
        <mxCell id="L5srDaottbRkrjwgrSW8-16" value="Sign Up Fragment" style="whiteSpace=wrap;html=1;" vertex="1" parent="1">
          <mxGeometry x="910" y="1960" width="120" height="60" as="geometry" />
        </mxCell>
        <mxCell id="L5srDaottbRkrjwgrSW8-18" value="&lt;div&gt;Input Text : &lt;br&gt;&lt;/div&gt;&lt;div&gt;1. Name&lt;/div&gt;&lt;div&gt;2. Company&lt;/div&gt;&lt;div&gt;3. PAN&lt;/div&gt;&lt;div&gt;4. Aadhaar&lt;/div&gt;&lt;div&gt;5. Other Fields X1&lt;/div&gt;&lt;div&gt;6. Other Fields X2&lt;/div&gt;&lt;div&gt;&lt;br&gt;&lt;/div&gt;&lt;div&gt;Submit Button&lt;br&gt;&lt;/div&gt;" style="whiteSpace=wrap;html=1;align=left;" vertex="1" parent="1">
          <mxGeometry x="910" y="2100" width="120" height="260" as="geometry" />
        </mxCell>
        <mxCell id="L5srDaottbRkrjwgrSW8-21" value="List of Deployed Job Page" style="whiteSpace=wrap;html=1;" vertex="1" parent="1">
          <mxGeometry x="1400" y="1120" width="120" height="60" as="geometry" />
        </mxCell>
      </root>
    </mxGraphModel>
  </diagram>
</mxfile>
